<svg id="visual" viewBox="0 0 250 900" width="250" height="900" xmlns="http://www.w3.org/2000/svg" xmlns:xlink="http://www.w3.org/1999/xlink" version="1.1"><rect x="0" y="0" width="250" height="900" fill="#fff"></rect><path d="M230 900L231 857L231 814L225 771L234 729L230 686L237 643L221 600L232 557L225 514L226 471L223 429L230 386L238 343L226 300L216 257L222 214L214 171L230 129L222 86L221 43L231 0L250 0L250 43L250 86L250 129L250 171L250 214L250 257L250 300L250 343L250 386L250 429L250 471L250 514L250 557L250 600L250 643L250 686L250 729L250 771L250 814L250 857L250 900Z" fill="#000" stroke-linecap="square" stroke-linejoin="bevel"></path></svg>